# xmcd
#
# Track frame offsets: 
#        150
#        25849
#        47380
#        67797
#        92546
#        110052
#        141071
#        174646
#        194879
#        212442
#        239034
#
# Disc length: 3445 seconds
#
# Revision: 1
# Processed by: cddbd v1.5.2PL0 Copyright (c) Steve Scherf et al.
# Submitted via: ExactAudioCopy v0.99pb4
#
DISCID=980d730b
DTITLE=Yo-Yo Ma · Stuart Duncan · Edgar Meyer · Chris Thile - The Goat
DTITLE=Rodeo Sessions
DYEAR=2011
DGENRE=Progressive Bluegrass
TTITLE0=Attaboy
TTITLE1=Quarter Chicken Dark
TTITLE2=Helping Hand
TTITLE3=Where's My Bow?
TTITLE4=Here and Heaven
TTITLE5=Franz and the Eagle
TTITLE6=Less Is Moi
TTITLE7=Hill Justice
TTITLE8=No One but You
TTITLE9=13:8
TTITLE10=Goat Rodeo
EXTD=Stuart Duncan: fiddle (ex tracks 3,7), mandolin (3), fretless ban
EXTD=jo (5), plectrum banjo (7]\nChris Thile: mandolin (ex 3,4), guita
EXTD=r (3), fiddle (4), viola da gamba (5), vocals (5,9]\nYo-Yo Ma: ce
EXTD=llo\nEdgar Meyer: double bass (ex 6,9), viola da gamba (5), piano
EXTD=(6,9]\nAiofe O'Donovan: vocals (5,9]\nRecorded by Richard King a
EXTD=t The Barn, Lenox US-MA, 2011-06-12/15 and 2011-08-08/12.\nMixed by
EXTD=Richard King at MSR Studios, New York US-NY.\nProduced by Steven
EXTD=Epstein.\nCD: Sony Classical 84118 (2011-10-24), UPC 88697841182
EXTD=2.
EXTT0=(Edgar Meyer/Chris Thile/Stuart Duncan)
EXTT1=(Edgar Meyer/Chris Thile/Stuart Duncan)
EXTT2=(Edgar Meyer/Chris Thile/Stuart Duncan)
EXTT3=(Edgar Meyer/Chris Thile/Stuart Duncan)
EXTT4=(Edgar Meyer/Chris Thile/Stuart Duncan/Aoife O'Donovan)
EXTT5=(Edgar Meyer/Chris Thile/Stuart Duncan)
EXTT6=(Edgar Meyer/Chris Thile/Stuart Duncan)
EXTT7=(Edgar Meyer/Chris Thile/Stuart Duncan)
EXTT8=(Edgar Meyer/Chris Thile/Stuart Duncan)
EXTT9=(Edgar Meyer/Chris Thile/Stuart Duncan)
EXTT10=(Edgar Meyer/Chris Thile/Stuart Duncan)
PLAYORDER=
